# xmcd
#
# Track frame offsets: 
#        150
#        19712
#        39331
#        53625
#        72576
#        92981
#        110337
#        128904
#        142645
#        160377
#        175731
#        191863
#
# Disc length: 2791 seconds
#
# Revision: 0
# Processed by: cddbd v1.5.2PL0 Copyright (c) Steve Scherf et al.
# Submitted via: ExactAudioCopy v1.3
#
DISCID=a00ae50c
DTITLE=Martin Metzger - Bad Habit
DYEAR=2018
DGENRE=Blues
TTITLE0=Bad Habit
TTITLE1=Dry Spell
TTITLE2=Rocket Girl
TTITLE3=Tailgaitin'
TTITLE4=Not Free At All
TTITLE5=Gunslinger
TTITLE6=This Way Or That Way
TTITLE7=Doin' Nothin'
TTITLE8=Nothin' Like Love
TTITLE9=Sweet Potato Pie
TTITLE10=David's Song
TTITLE11=Rock Dog
EXTD=
EXTT0=
EXTT1=
EXTT2=
EXTT3=
EXTT4=
EXTT5=
EXTT6=
EXTT7=
EXTT8=
EXTT9=
EXTT10=
EXTT11=
PLAYORDER=
